# xmcd
#
# Track frame offsets:
#       150
#       10153
#       20934
#       27451
#       37176
#       49221
#       80959
#       93581
#       105322
#       127803
#       142973
#       156160
#       185412
#       210907
#       244237
#       258583
#       278722
#       301681
#       321115
#       333979
#
# Disc length: 4554 seconds
#
# Revision: 0
# Processed by: cddbd v1.5.2PL0 Copyright (c) Steve Scherf et al.
# Submitted via: WaveLab 4.01
#
DISCID=1611c814
DTITLE=Stadtmusik Basel - Stadtmusik Basel - Taktvoll
DYEAR=2007
DGENRE=
TTITLE0=The Magic of Music: Prelude
TTITLE1=The Magic of Music: Bossa
TTITLE2=The Magic of Music: Fly like the Woodwinds
TTITLE3=The Magic of Music: Swing
TTITLE4=What Now my Love
TTITLE5=Just in Time
TTITLE6=Ich bring Dich um die Ecke
TTITLE7=Ich bin so scharf auf Erika
TTITLE8=S'isch aebe-n-e Moensch uf Aerde
TTITLE9=Basler Marsch
TTITLE10=Der Walzer
TTITLE11=Symphonic Dance No. 3 "Fiesta"
TTITLE12=Konzert für Bassposaune und Blasorchester: Kelten vs Roemer
TTITLE13=Konzert für Bassposaune und Blasorchester: Anderswelt
TTITLE14=Konzert für Bassposaune und Blasorchester: Geisterreigen
TTITLE15=Back Street Blues
TTITLE16=Coconut Champagne
TTITLE17=Arranco
TTITLE18=Cute
TTITLE19=Basler Lied
EXTD=
EXTT0=
EXTT1=
EXTT2=
EXTT3=
EXTT4=
EXTT5=
EXTT6=
EXTT7=
EXTT8=
EXTT9=
EXTT10=
EXTT11=
EXTT12=
EXTT13=
EXTT14=
EXTT15=
EXTT16=
EXTT17=
EXTT18=
EXTT19=
PLAYORDER=
